<svg version="1.1" xmlns="http://www.w3.org/2000/svg" xmlns:xlink="http://www.w3.org/1999/xlink" width="832.998046875" height="676"><defs/><g><g><path fill="#C0C0C0" stroke="none" paint-order="stroke fill markers" d=" M 369 49 C 369 31.3268864 383.3268864 17 401 17 C 418.67311359999997 17 433 31.3268864 433 49 C 433 66.6731136 418.67311359999997 81 401 81 C 383.3268864 81 369 66.6731136 369 49 Z" fill-opacity="0.2"/></g><g><path fill="#C0C0C0" stroke="none" paint-order="stroke fill markers" d=" M 311 89 L 491 89 Q 497 89 497 95 L 497 179 Q 497 185 491 185 L 311 185 Q 305 185 305 179 L 305 95 Q 305 89 311 89 Z" fill-opacity="0.2"/></g><g><path fill="#348BB7" stroke="none" paint-order="stroke fill markers" d=" M 362 42 C 362 24.3268864 376.3268864 10 394 10 C 411.67311359999997 10 426 24.3268864 426 42 C 426 59.6731136 411.67311359999997 74 394 74 C 376.3268864 74 362 59.6731136 362 42 Z"/></g><g><path fill="none" stroke="#000000" paint-order="fill stroke markers" d=" M 362 42 C 362 24.3268864 376.3268864 10 394 10 C 411.67311359999997 10 426 24.3268864 426 42 C 426 59.6731136 411.67311359999997 74 394 74 C 376.3268864 74 362 59.6731136 362 42 Z" stroke-miterlimit="10" stroke-dasharray=""/></g><g><path fill="#348BB7" stroke="none" paint-order="stroke fill markers" d=" M 304 82 L 484 82 Q 490 82 490 88 L 490 172 Q 490 178 484 178 L 304 178 Q 298 178 298 172 L 298 88 Q 298 82 304 82 Z"/></g><g><path fill="none" stroke="#000000" paint-order="fill stroke markers" d=" M 304 82 L 484 82 Q 490 82 490 88 L 490 172 Q 490 178 484 178 L 304 178 Q 298 178 298 172 L 298 88 Q 298 82 304 82 Z" stroke-miterlimit="10" stroke-dasharray=""/></g><g><g><path fill="none" stroke="none"/><text fill="#000000" stroke="none" font-family="Arial" font-size="13px" font-style="normal" font-weight="bold" text-decoration="undefined" x="520" y="86.5" text-anchor="middle" dominant-baseline="central" transform="matrix(1 0 0 1 -126 10)">測試人員</text></g></g><g><g><path fill="none" stroke="none"/><text fill="#000000" stroke="none" font-family="Arial" font-size="13px" font-style="normal" font-weight="normal" text-decoration="undefined" x="520" y="101.5" text-anchor="middle" dominant-baseline="central" transform="matrix(1 0 0 1 -126 10)">[Person]</text></g></g><g><g><path fill="none" stroke="none"/></g></g><g><path fill="#C0C0C0" stroke="none" paint-order="stroke fill markers" d=" M 23 553 L 203 553 Q 209 553 209 559 L 209 667 Q 209 673 203 673 L 23 673 Q 17 673 17 667 L 17 559 Q 17 553 23 553 Z" fill-opacity="0.2"/></g><g><path fill="#6dceff" stroke="none" paint-order="stroke fill markers" d=" M 16 546 L 196 546 Q 202 546 202 552 L 202 660 Q 202 666 196 666 L 16 666 Q 10 666 10 660 L 10 552 Q 10 546 16 546 Z"/></g><g><path fill="none" stroke="#000000" paint-order="fill stroke markers" d=" M 16 546 L 196 546 Q 202 546 202 552 L 202 660 Q 202 666 196 666 L 16 666 Q 10 666 10 660 L 10 552 Q 10 546 16 546 Z" stroke-miterlimit="10" stroke-dasharray=""/></g><g><g><path fill="none" stroke="none"/><text fill="#000000" stroke="none" font-family="Arial" font-size="13px" font-style="normal" font-weight="bold" text-decoration="undefined" x="232" y="550.5" text-anchor="middle" dominant-baseline="central" transform="matrix(1 0 0 1 -126 10)">資料監控工具</text></g></g><g><g><path fill="none" stroke="none"/><text fill="#000000" stroke="none" font-family="Arial" font-size="13px" font-style="normal" font-weight="normal" text-decoration="undefined" x="232" y="565.5" text-anchor="middle" dominant-baseline="central" transform="matrix(1 0 0 1 -126 10)">[Software System]</text></g></g><g><g><path fill="none" stroke="none"/></g></g><g><path fill="#C0C0C0" stroke="none" paint-order="stroke fill markers" d=" M 23 289 L 203 289 Q 209 289 209 295 L 209 395 Q 209 401 203 401 L 23 401 Q 17 401 17 395 L 17 295 Q 17 289 23 289 Z" fill-opacity="0.2"/></g><g><path fill="#AAAAAA" stroke="none" paint-order="stroke fill markers" d=" M 16 282 L 196 282 Q 202 282 202 288 L 202 388 Q 202 394 196 394 L 16 394 Q 10 394 10 388 L 10 288 Q 10 282 16 282 Z"/></g><g><path fill="none" stroke="#000000" paint-order="fill stroke markers" d=" M 16 282 L 196 282 Q 202 282 202 288 L 202 388 Q 202 394 196 394 L 16 394 Q 10 394 10 388 L 10 288 Q 10 282 16 282 Z" stroke-miterlimit="10" stroke-dasharray=""/></g><g><path fill="none" stroke="#000000" paint-order="fill stroke markers" d=" M 18 293 C 18 290.238576 20.238575999999995 288 23 288 C 25.761424000000005 288 28 290.238576 28 293 C 28 295.761424 25.761424000000005 298 23 298 C 20.238575999999995 298 18 295.761424 18 293 Z" stroke-miterlimit="10" stroke-dasharray=""/></g><g><path fill="none" stroke="#000000" paint-order="fill stroke markers" d=" M 32 293 C 32 290.238576 34.238575999999995 288 37 288 C 39.761424000000005 288 42 290.238576 42 293 C 42 295.761424 39.761424000000005 298 37 298 C 34.238575999999995 298 32 295.761424 32 293 Z" stroke-miterlimit="10" stroke-dasharray=""/></g><g><path fill="none" stroke="#000000" paint-order="fill stroke markers" d=" M 51 288 L 189 288 Q 194 288 194 293 L 194 293 Q 194 298 189 298 L 51 298 Q 46 298 46 293 L 46 293 Q 46 288 51 288 Z" stroke-miterlimit="10" stroke-dasharray=""/></g><g><path fill="none" stroke="#000000" paint-order="fill stroke markers" d=" M 10 306 L 202 306" stroke-miterlimit="10" stroke-dasharray=""/></g><g><g><path fill="none" stroke="none"/><text fill="#000000" stroke="none" font-family="Arial" font-size="13px" font-style="normal" font-weight="bold" text-decoration="undefined" x="232" y="308.5" text-anchor="middle" dominant-baseline="central" transform="matrix(1 0 0 1 -126 10)">SUT</text></g></g><g><g><path fill="none" stroke="none"/><text fill="#000000" stroke="none" font-family="Arial" font-size="13px" font-style="normal" font-weight="normal" text-decoration="undefined" x="232" y="323.5" text-anchor="middle" dominant-baseline="central" transform="matrix(1 0 0 1 -126 10)">[Container]</text></g></g><g><g><path fill="none" stroke="none"/></g></g><g><path fill="#C0C0C0" stroke="none" paint-order="stroke fill markers" d=" M 311 353 L 491 353 Q 497 353 497 359 L 497 467 Q 497 473 491 473 L 311 473 Q 305 473 305 467 L 305 359 Q 305 353 311 353 Z" fill-opacity="0.2"/></g><g><path fill="#6dceff" stroke="none" paint-order="stroke fill markers" d=" M 304 346 L 484 346 Q 490 346 490 352 L 490 460 Q 490 466 484 466 L 304 466 Q 298 466 298 460 L 298 352 Q 298 346 304 346 Z"/></g><g><path fill="none" stroke="#000000" paint-order="fill stroke markers" d=" M 304 346 L 484 346 Q 490 346 490 352 L 490 460 Q 490 466 484 466 L 304 466 Q 298 466 298 460 L 298 352 Q 298 346 304 346 Z" stroke-miterlimit="10" stroke-dasharray=""/></g><g><g><path fill="none" stroke="none"/><text fill="#000000" stroke="none" font-family="Arial" font-size="13px" font-style="normal" font-weight="bold" text-decoration="undefined" x="520" y="350.5" text-anchor="middle" dominant-baseline="central" transform="matrix(1 0 0 1 -126 10)">Karate-Generator工具</text></g></g><g><g><path fill="none" stroke="none"/><text fill="#000000" stroke="none" font-family="Arial" font-size="13px" font-style="normal" font-weight="normal" text-decoration="undefined" x="520" y="365.5" text-anchor="middle" dominant-baseline="central" transform="matrix(1 0 0 1 -126 10)">[Software System]</text></g></g><g><g><path fill="none" stroke="none"/></g></g><g><path fill="none" stroke="#000000" paint-order="fill stroke markers" d=" M 297 176 L 173 281" stroke-miterlimit="10" stroke-dasharray="3"/></g><g><path fill="#000000" stroke="none" paint-order="stroke fill markers" d=" M 178.03540715815183 271.2201904542249 L 173 281 L 183.47594019609494 277.6452008990339"/></g><g><path fill="none" stroke="#000000" paint-order="fill stroke markers" d=" M 178.03540715815183 271.2201904542249 L 173 281 L 183.47594019609494 277.6452008990339 L 178.03540715815183 271.2201904542249" stroke-miterlimit="10" stroke-dasharray=""/></g><g><rect fill="#ffffff" stroke="none" x="244" y="199" width="182" height="13" transform="matrix(1 0 0 1 -126 10)"/></g><g><g><path fill="none" stroke="none"/><text fill="#000000" stroke="none" font-family="Arial" font-size="13px" font-style="normal" font-weight="normal" text-decoration="undefined" x="335" y="205.5" text-anchor="middle" dominant-baseline="central" transform="matrix(1 0 0 1 -126 10)">測試前端網頁</text></g></g><g><path fill="none" stroke="#000000" paint-order="fill stroke markers" d=" M 394 466 L 394 618 L 202 618" stroke-miterlimit="10" stroke-dasharray="3"/></g><g><path fill="#000000" stroke="none" paint-order="stroke fill markers" d=" M 212.16267485762415 613.790482243984 L 202 618 L 212.16267485762415 622.209517756016"/></g><g><path fill="none" stroke="#000000" paint-order="fill stroke markers" d=" M 212.16267485762415 613.790482243984 L 202 618 L 212.16267485762415 622.209517756016 L 212.16267485762415 613.790482243984" stroke-miterlimit="10" stroke-dasharray=""/></g><g><rect fill="#ffffff" stroke="none" x="492" y="558" width="104" height="13" transform="matrix(1 0 0 1 -126 10)"/></g><g><g><path fill="none" stroke="none"/><text fill="#000000" stroke="none" font-family="Arial" font-size="13px" font-style="normal" font-weight="normal" text-decoration="undefined" x="544" y="564.5" text-anchor="middle" dominant-baseline="central" transform="matrix(1 0 0 1 -126 10)">擷取測試所需資料</text></g></g><g><path fill="none" stroke="#000000" paint-order="fill stroke markers" d=" M 122 546 L 122 394" stroke-miterlimit="10" stroke-dasharray="3"/></g><g><path fill="#000000" stroke="none" paint-order="stroke fill markers" d=" M 126.209517756016 404.16267485762415 L 122 394 L 117.790482243984 404.16267485762415"/></g><g><path fill="none" stroke="#000000" paint-order="fill stroke markers" d=" M 126.209517756016 404.16267485762415 L 122 394 L 117.790482243984 404.16267485762415 L 126.209517756016 404.16267485762415" stroke-miterlimit="10" stroke-dasharray=""/></g><g><rect fill="#ffffff" stroke="none" x="192" y="447" width="78" height="13" transform="matrix(1 0 0 1 -126 10)"/></g><g><g><path fill="none" stroke="none"/><text fill="#000000" stroke="none" font-family="Arial" font-size="13px" font-style="normal" font-weight="normal" text-decoration="undefined" x="231" y="453.5" text-anchor="middle" dominant-baseline="central" transform="matrix(1 0 0 1 -126 10)">擷取監控資料</text></g></g><g><path fill="none" stroke="#000000" paint-order="fill stroke markers" d=" M 386 178 L 386 346" stroke-miterlimit="10" stroke-dasharray="3"/></g><g><path fill="#000000" stroke="none" paint-order="stroke fill markers" d=" M 381.790482243984 335.83732514237585 L 386 346 L 390.209517756016 335.83732514237585"/></g><g><path fill="none" stroke="#000000" paint-order="fill stroke markers" d=" M 381.790482243984 335.83732514237585 L 386 346 L 390.209517756016 335.83732514237585 L 381.790482243984 335.83732514237585" stroke-miterlimit="10" stroke-dasharray=""/></g><g><rect fill="#ffffff" stroke="none" x="456" y="235" width="117.08251953125" height="13" transform="matrix(1 0 0 1 -126 10)"/></g><g><g><path fill="none" stroke="none"/><text fill="#000000" stroke="none" font-family="Arial" font-size="13px" font-style="normal" font-weight="normal" text-decoration="undefined" x="514.541259765625" y="241.5" text-anchor="middle" dominant-baseline="central" transform="matrix(1 0 0 1 -126 10)">啟動</text></g></g><g><path fill="#C0C0C0" stroke="none" paint-order="stroke fill markers" d=" M 719 434 L 787 434 Q 793 434 793 440 L 793 469 Q 793 475 787 475 L 719 475 Q 713 475 713 469 L 713 440 Q 713 434 719 434 Z" fill-opacity="0.2"/></g><g><path fill="#ffffff" stroke="none" paint-order="stroke fill markers" d=" M 712 427 L 780 427 Q 786 427 786 433 L 786 462 Q 786 468 780 468 L 712 468 Q 706 468 706 462 L 706 433 Q 706 427 712 427 Z"/></g><g><path fill="none" stroke="#000000" paint-order="fill stroke markers" d=" M 712 427 L 780 427 Q 786 427 786 433 L 786 462 Q 786 468 780 468 L 712 468 Q 706 468 706 462 L 706 433 Q 706 427 712 427 Z" stroke-miterlimit="10" stroke-dasharray=""/></g><g><g><path fill="none" stroke="none"/><text fill="#000000" stroke="none" font-family="Arial" font-size="13px" font-style="normal" font-weight="bold" text-decoration="undefined" x="840" y="441.5" text-anchor="start" dominant-baseline="central" transform="matrix(1 0 0 1 -126 10)">Swagger</text></g></g><g><g><path fill="none" stroke="none"/></g></g><g><g><path fill="none" stroke="none"/></g></g><g><path fill="#C0C0C0" stroke="none" paint-order="stroke fill markers" d=" M 623 530 L 746.10107421875 530 Q 752.10107421875 530 752.10107421875 536 L 752.10107421875 565 Q 752.10107421875 571 746.10107421875 571 L 623 571 Q 617 571 617 565 L 617 536 Q 617 530 623 530 Z" fill-opacity="0.2"/></g><g><path fill="#ffffff" stroke="none" paint-order="stroke fill markers" d=" M 616 523 L 739.10107421875 523 Q 745.10107421875 523 745.10107421875 529 L 745.10107421875 558 Q 745.10107421875 564 739.10107421875 564 L 616 564 Q 610 564 610 558 L 610 529 Q 610 523 616 523 Z"/></g><g><path fill="none" stroke="#000000" paint-order="fill stroke markers" d=" M 616 523 L 739.10107421875 523 Q 745.10107421875 523 745.10107421875 529 L 745.10107421875 558 Q 745.10107421875 564 739.10107421875 564 L 616 564 Q 610 564 610 558 L 610 529 Q 610 523 616 523 Z" stroke-miterlimit="10" stroke-dasharray=""/></g><g><g><path fill="none" stroke="none"/><text fill="#000000" stroke="none" font-family="Arial" font-size="13px" font-style="normal" font-weight="bold" text-decoration="undefined" x="744" y="537.5" text-anchor="start" dominant-baseline="central" transform="matrix(1 0 0 1 -126 10)">Cucumber-Gherkin</text></g></g><g><g><path fill="none" stroke="none"/></g></g><g><g><path fill="none" stroke="none"/></g></g><g><path fill="#C0C0C0" stroke="none" paint-order="stroke fill markers" d=" M 695 113 L 823.998046875 113 Q 829.998046875 113 829.998046875 119 L 829.998046875 179 Q 829.998046875 185 823.998046875 185 L 695 185 Q 689 185 689 179 L 689 119 Q 689 113 695 113 Z" fill-opacity="0.2"/></g><g><path fill="#6dceff" stroke="none" paint-order="stroke fill markers" d=" M 688 106 L 816.998046875 106 Q 822.998046875 106 822.998046875 112 L 822.998046875 172 Q 822.998046875 178 816.998046875 178 L 688 178 Q 682 178 682 172 L 682 112 Q 682 106 688 106 Z"/></g><g><path fill="none" stroke="#000000" paint-order="fill stroke markers" d=" M 688 106 L 816.998046875 106 Q 822.998046875 106 822.998046875 112 L 822.998046875 172 Q 822.998046875 178 816.998046875 178 L 688 178 Q 682 178 682 172 L 682 112 Q 682 106 688 106 Z" stroke-miterlimit="10" stroke-dasharray=""/></g><g><g><path fill="none" stroke="none"/><text fill="#000000" stroke="none" font-family="Arial" font-size="13px" font-style="normal" font-weight="bold" text-decoration="undefined" x="878.4990234375" y="110.5" text-anchor="middle" dominant-baseline="central" transform="matrix(1 0 0 1 -126 10)">Karate</text></g></g><g><g><path fill="none" stroke="none"/><text fill="#000000" stroke="none" font-family="Arial" font-size="13px" font-style="normal" font-weight="normal" text-decoration="undefined" x="878.4990234375" y="125.5" text-anchor="middle" dominant-baseline="central" transform="matrix(1 0 0 1 -126 10)">[Software System]</text></g></g><g><g><path fill="none" stroke="none"/></g></g><g><path fill="none" stroke="#000000" paint-order="fill stroke markers" d=" M 491 453 L 634 522" stroke-miterlimit="10" stroke-dasharray="3"/></g><g><path fill="#000000" stroke="none" paint-order="stroke fill markers" d=" M 623.0177801329255 521.3748225921915 L 634 522 L 626.676465044016 513.792330675004"/></g><g><path fill="none" stroke="#000000" paint-order="fill stroke markers" d=" M 623.0177801329255 521.3748225921915 L 634 522 L 626.676465044016 513.792330675004 L 623.0177801329255 521.3748225921915" stroke-miterlimit="10" stroke-dasharray=""/></g><g><rect fill="#ffffff" stroke="none" x="671" y="457" width="47.16943359375" height="13" transform="matrix(1 0 0 1 -126 10)"/></g><g><g><path fill="none" stroke="none"/><text fill="#000000" stroke="none" font-family="Arial" font-size="13px" font-style="normal" font-weight="normal" text-decoration="undefined" x="694.584716796875" y="463.5" text-anchor="middle" dominant-baseline="central" transform="matrix(1 0 0 1 -126 10)">擷取Tag</text></g></g><g><path fill="#C0C0C0" stroke="none" paint-order="stroke fill markers" d=" M 711 321 L 810.6083984375 321 Q 816.6083984375 321 816.6083984375 327 L 816.6083984375 356 Q 816.6083984375 362 810.6083984375 362 L 711 362 Q 705 362 705 356 L 705 327 Q 705 321 711 321 Z" fill-opacity="0.2"/></g><g><path fill="#ffffff" stroke="none" paint-order="stroke fill markers" d=" M 704 314 L 803.6083984375 314 Q 809.6083984375 314 809.6083984375 320 L 809.6083984375 349 Q 809.6083984375 355 803.6083984375 355 L 704 355 Q 698 355 698 349 L 698 320 Q 698 314 704 314 Z"/></g><g><path fill="none" stroke="#000000" paint-order="fill stroke markers" d=" M 704 314 L 803.6083984375 314 Q 809.6083984375 314 809.6083984375 320 L 809.6083984375 349 Q 809.6083984375 355 803.6083984375 355 L 704 355 Q 698 355 698 349 L 698 320 Q 698 314 704 314 Z" stroke-miterlimit="10" stroke-dasharray=""/></g><g><g><path fill="none" stroke="none"/><text fill="#000000" stroke="none" font-family="Arial" font-size="13px" font-style="normal" font-weight="bold" text-decoration="undefined" x="832" y="328.5" text-anchor="start" dominant-baseline="central" transform="matrix(1 0 0 1 -126 10)">Karate-Gherkin</text></g></g><g><g><path fill="none" stroke="none"/></g></g><g><g><path fill="none" stroke="none"/></g></g><g><path fill="none" stroke="#000000" paint-order="fill stroke markers" d=" M 752 179 L 753 313" stroke-miterlimit="10" stroke-dasharray="3"/></g><g><path fill="#000000" stroke="none" paint-order="stroke fill markers" d=" M 748.714760711287 302.86902155571977 L 753 313 L 757.1335617979493 302.80619468193873"/></g><g><path fill="none" stroke="#000000" paint-order="fill stroke markers" d=" M 748.714760711287 302.86902155571977 L 753 313 L 757.1335617979493 302.80619468193873 L 748.714760711287 302.86902155571977" stroke-miterlimit="10" stroke-dasharray=""/></g><g><path fill="none" stroke="#000000" paint-order="fill stroke markers" d=" M 491 417 L 705 442" stroke-miterlimit="10" stroke-dasharray="3"/></g><g><path fill="#000000" stroke="none" paint-order="stroke fill markers" d=" M 694.4175263874454 445.00187478745937 L 705 442 L 695.3944151283495 436.6397071653204"/></g><g><path fill="none" stroke="#000000" paint-order="fill stroke markers" d=" M 694.4175263874454 445.00187478745937 L 705 442 L 695.3944151283495 436.6397071653204 L 694.4175263874454 445.00187478745937" stroke-miterlimit="10" stroke-dasharray=""/></g><g><rect fill="#ffffff" stroke="none" x="669" y="398" width="112.16943359375" height="13" transform="matrix(1 0 0 1 -126 10)"/></g><g><g><path fill="none" stroke="none"/><text fill="#000000" stroke="none" font-family="Arial" font-size="13px" font-style="normal" font-weight="normal" text-decoration="undefined" x="725.084716796875" y="404.5" text-anchor="middle" dominant-baseline="central" transform="matrix(1 0 0 1 -126 10)">擷取Tag與端點資料</text></g></g><g><path fill="none" stroke="#000000" paint-order="fill stroke markers" d=" M 491 387 L 697 345" stroke-miterlimit="10" stroke-dasharray="3"/></g><g><path fill="#000000" stroke="none" paint-order="stroke fill markers" d=" M 687.8831341822254 351.1548970471237 L 697 345 L 686.2012329175575 342.90557179660993"/></g><g><path fill="none" stroke="#000000" paint-order="fill stroke markers" d=" M 687.8831341822254 351.1548970471237 L 697 345 L 686.2012329175575 342.90557179660993 L 687.8831341822254 351.1548970471237" stroke-miterlimit="10" stroke-dasharray=""/></g><g><rect fill="#ffffff" stroke="none" x="704" y="335" width="26" height="13" transform="matrix(1 0 0 1 -126 10)"/></g><g><g><path fill="none" stroke="none"/><text fill="#000000" stroke="none" font-family="Arial" font-size="13px" font-style="normal" font-weight="normal" text-decoration="undefined" x="717" y="341.5" text-anchor="middle" dominant-baseline="central" transform="matrix(1 0 0 1 -126 10)">產生</text></g></g><g><path fill="none" stroke="#000000" paint-order="fill stroke markers" d=" M 491 107 L 681 132" stroke-miterlimit="10" stroke-dasharray="3"/></g><g><path fill="#000000" stroke="none" paint-order="stroke fill markers" d=" M 670.3750217711846 134.8477776663918 L 681 132 L 671.473322945228 126.5006887436625"/></g><g><path fill="none" stroke="#000000" paint-order="fill stroke markers" d=" M 670.3750217711846 134.8477776663918 L 681 132 L 671.473322945228 126.5006887436625 L 670.3750217711846 134.8477776663918" stroke-miterlimit="10" stroke-dasharray=""/></g><g><rect fill="#ffffff" stroke="none" x="664" y="88" width="116.3017578125" height="13" transform="matrix(1 0 0 1 -126 10)"/></g><g><g><path fill="none" stroke="none"/><text fill="#000000" stroke="none" font-family="Arial" font-size="13px" font-style="normal" font-weight="normal" text-decoration="undefined" x="722.15087890625" y="94.5" text-anchor="middle" dominant-baseline="central" transform="matrix(1 0 0 1 -126 10)">啟動</text></g></g></g></svg>